<svg width="64" height="64" viewBox="0 0 64 64" fill="none" xmlns="http://www.w3.org/2000/svg">
<rect width="64" height="64" rx="16" fill="#F5F5F5"/>
<rect x="7.52942" y="8" width="27.7647" height="1.41176" rx="0.705882" fill="#AAAAAA"/>
<rect x="8" y="17.4118" width="19.7647" height="1.88235" rx="0.941176" fill="#AAAAAA"/>
<rect x="7.52942" y="25.8824" width="33.4118" height="1.88235" rx="0.941176" fill="#AAAAAA"/>
<rect x="7.52942" y="34.8235" width="41.4118" height="1.88235" rx="0.941176" fill="#AAAAAA"/>
<rect x="7.52942" y="44.7059" width="48.4706" height="1.88235" rx="0.941176" fill="#AAAAAA"/>
<rect x="8" y="54.5882" width="48.4706" height="1.88235" rx="0.941176" fill="#AAAAAA"/>
<path d="M60.7059 13.1765C60.7059 17.8546 56.8081 21.647 52 21.647C47.1919 21.647 43.2941 17.8546 43.2941 13.1765C43.2941 8.49828 47.1919 4.70587 52 4.70587C56.8081 4.70587 60.7059 8.49828 60.7059 13.1765Z" fill="#AAAAAA"/>
<path d="M60.7059 13.1765C60.7059 17.8546 56.8081 21.647 52 21.647C47.1919 21.647 43.2941 17.8546 43.2941 13.1765C43.2941 8.49828 47.1919 4.70587 52 4.70587C56.8081 4.70587 60.7059 8.49828 60.7059 13.1765Z" stroke="#211C1C"/>
</svg>
