<svg width="16" height="16" viewBox="0 0 16 16" fill="none" xmlns="http://www.w3.org/2000/svg">
<rect width="16" height="16" rx="8" fill="#F5F5F5"/>
<rect x="1.88235" y="2" width="6.94118" height="0.352941" rx="0.176471" fill="#AAAAAA"/>
<rect x="2" y="4.35294" width="4.94118" height="0.470588" rx="0.235294" fill="#AAAAAA"/>
<rect x="1.88235" y="6.47058" width="8.35294" height="0.470588" rx="0.235294" fill="#AAAAAA"/>
<rect x="1.88235" y="8.70589" width="10.3529" height="0.470588" rx="0.235294" fill="#AAAAAA"/>
<rect x="1.88235" y="11.1765" width="12.1176" height="0.470588" rx="0.235294" fill="#AAAAAA"/>
<rect x="2" y="13.6471" width="12.1176" height="0.470588" rx="0.235294" fill="#AAAAAA"/>
<path d="M15.1765 3.29412C15.1765 4.46366 14.202 5.41176 13 5.41176C11.798 5.41176 10.8235 4.46366 10.8235 3.29412C10.8235 2.12457 11.798 1.17647 13 1.17647C14.202 1.17647 15.1765 2.12457 15.1765 3.29412Z" fill="#AAAAAA"/>
<path d="M15.1765 3.29412C15.1765 4.46366 14.202 5.41176 13 5.41176C11.798 5.41176 10.8235 4.46366 10.8235 3.29412C10.8235 2.12457 11.798 1.17647 13 1.17647C14.202 1.17647 15.1765 2.12457 15.1765 3.29412Z" stroke="#211C1C"/>
</svg>
