<svg width="32" height="32" viewBox="0 0 32 32" fill="none" xmlns="http://www.w3.org/2000/svg">
<rect width="32" height="32" rx="16" fill="#211C1C"/>
<rect x="3.76471" y="4" width="13.8824" height="0.705882" rx="0.352941" fill="#AAAAAA"/>
<rect x="4" y="8.70589" width="9.88235" height="0.941176" rx="0.470588" fill="#AAAAAA"/>
<rect x="3.76471" y="12.9412" width="16.7059" height="0.941176" rx="0.470588" fill="#AAAAAA"/>
<rect x="3.76471" y="17.4118" width="20.7059" height="0.941176" rx="0.470588" fill="#AAAAAA"/>
<rect x="3.76471" y="22.3529" width="24.2353" height="0.941176" rx="0.470588" fill="#AAAAAA"/>
<rect x="4" y="27.2941" width="24.2353" height="0.941176" rx="0.470588" fill="#AAAAAA"/>
<path d="M30.3529 6.58823C30.3529 8.92732 28.4041 10.8235 26 10.8235C23.5959 10.8235 21.6471 8.92732 21.6471 6.58823C21.6471 4.24914 23.5959 2.35294 26 2.35294C28.4041 2.35294 30.3529 4.24914 30.3529 6.58823Z" fill="#AAAAAA"/>
<path d="M30.3529 6.58823C30.3529 8.92732 28.4041 10.8235 26 10.8235C23.5959 10.8235 21.6471 8.92732 21.6471 6.58823C21.6471 4.24914 23.5959 2.35294 26 2.35294C28.4041 2.35294 30.3529 4.24914 30.3529 6.58823Z" stroke="#211C1C"/>
</svg>
