<svg width="180" height="180" viewBox="0 0 180 180" fill="none" xmlns="http://www.w3.org/2000/svg">
<rect width="180" height="180" rx="16" fill="#211C1C"/>
<rect x="21.1765" y="22.5" width="78.0882" height="3.97059" rx="1.98529" fill="#AAAAAA"/>
<rect x="22.5" y="48.9706" width="55.5882" height="5.29412" rx="2.64706" fill="#AAAAAA"/>
<rect x="21.1765" y="72.7941" width="93.9706" height="5.29412" rx="2.64706" fill="#AAAAAA"/>
<rect x="21.1765" y="97.9412" width="116.471" height="5.29412" rx="2.64706" fill="#AAAAAA"/>
<rect x="21.1765" y="125.735" width="136.324" height="5.29412" rx="2.64706" fill="#AAAAAA"/>
<rect x="22.5" y="153.529" width="136.324" height="5.29412" rx="2.64706" fill="#AAAAAA"/>
<path d="M170.735 37.0588C170.735 50.2162 159.773 60.8824 146.25 60.8824C132.727 60.8824 121.765 50.2162 121.765 37.0588C121.765 23.9014 132.727 13.2353 146.25 13.2353C159.773 13.2353 170.735 23.9014 170.735 37.0588Z" fill="#AAAAAA"/>
<path d="M170.735 37.0588C170.735 50.2162 159.773 60.8824 146.25 60.8824C132.727 60.8824 121.765 50.2162 121.765 37.0588C121.765 23.9014 132.727 13.2353 146.25 13.2353C159.773 13.2353 170.735 23.9014 170.735 37.0588Z" stroke="#211C1C"/>
</svg>
